<svg width="402" height="112" xmlns="http://www.w3.org/2000/svg">

 <g>
  <title>background</title>
  <rect fill="none" id="canvas_background" height="114" width="404" y="-1" x="-1"/>
 </g>
 <g>
  <title>Layer 1</title>
  <g stroke="null" id="svg_1">
   <g stroke="null" id="svg_2" fill="#5f55af">
    <path stroke="null" id="svg_3" d="m15.359375,99.46875l-8.90625,0c-2.461391,0 -4.453125,-1.991734 -4.453125,-4.453125l0,-8.90625c0,-2.461391 1.991734,-4.453125 4.453125,-4.453125s4.453125,1.991734 4.453125,4.453125l0,4.453125l4.453125,0c2.461391,0 4.453125,1.991734 4.453125,4.453125s-1.991734,4.453125 -4.453125,4.453125z"/>
    <path stroke="null" id="svg_4" d="m6.453125,72.75c-2.461391,0 -4.453125,-1.991734 -4.453125,-4.453125l0,-8.90625c0,-2.461391 1.991734,-4.453125 4.453125,-4.453125s4.453125,1.991734 4.453125,4.453125l0,8.90625c0,2.461391 -1.991734,4.453125 -4.453125,4.453125z"/>
    <path stroke="null" id="svg_5" d="m6.453125,46.03125c-2.461391,0 -4.453125,-1.991734 -4.453125,-4.453125l0,-8.90625c0,-2.461391 1.991734,-4.453125 4.453125,-4.453125s4.453125,1.991734 4.453125,4.453125l0,8.90625c0,2.461391 -1.991734,4.453125 -4.453125,4.453125z"/>
    <path stroke="null" id="svg_6" d="m6.453125,19.3125c-2.461391,0 -4.453125,-1.991734 -4.453125,-4.453125l0,-8.90625c0,-2.461391 1.991734,-4.453125 4.453125,-4.453125l8.90625,0c2.461391,0 4.453125,1.991734 4.453125,4.453125s-1.991734,4.453125 -4.453125,4.453125l-4.453125,0l0,4.453125c0,2.461391 -1.991734,4.453125 -4.453125,4.453125z"/>
    <path stroke="null" id="svg_7" d="m42.078125,10.40625l-8.90625,0c-2.461391,0 -4.453125,-1.991734 -4.453125,-4.453125s1.991734,-4.453125 4.453125,-4.453125l8.90625,0c2.461391,0 4.75,1.991734 4.75,4.453125s-2.288609,4.453125 -4.75,4.453125z"/>
    <path stroke="null" id="svg_8" d="m69.09375,10.40625l-8.90625,0c-2.461391,0 -4.453125,-1.991734 -4.453125,-4.453125s1.991734,-4.453125 4.453125,-4.453125l8.90625,0c2.461391,0 4.453125,1.991734 4.453125,4.453125s-1.991734,4.453125 -4.453125,4.453125z"/>
   </g>
   <path stroke="null" id="svg_9" fill="#453d83" d="m122.53125,19.3125c-2.461391,0 -4.453125,-1.991734 -4.453125,-4.453125l0,-4.453125l-4.453125,0c-2.461391,0 -4.453125,-1.991734 -4.453125,-4.453125s1.991734,-4.453125 4.453125,-4.453125l8.90625,0c2.461391,0 4.453125,1.991734 4.453125,4.453125l0,8.90625c0,2.461391 -1.991734,4.453125 -4.453125,4.453125z"/>
   <path stroke="null" id="svg_10" fill="#5f55af" d="m95.8125,1.5l-4.453125,0l-4.453125,0c-2.461391,0 -4.453125,1.991734 -4.453125,4.453125s1.991734,4.453125 4.453125,4.453125l4.453125,0l4.453125,0c2.461391,0 4.453125,-1.991734 4.453125,-4.453125s-1.991734,-4.453125 -4.453125,-4.453125z"/>
   <path stroke="null" id="svg_11" fill="#453d83" d="m100.265625,5.953125c0,-2.461391 -1.991734,-4.453125 -4.453125,-4.453125l-4.453125,0l0,8.90625l4.453125,0c2.461391,0 4.453125,-1.991734 4.453125,-4.453125z"/>
  </g>
  <g stroke="null" id="svg_12">
   <path stroke="null" id="svg_13" fill="#edf5ff" d="m134.546875,22.921875l-53.4375,0l-53.4375,0c-2.461391,0 -4.453125,1.991734 -4.453125,4.453125l0,80.75c0,2.461391 1.991734,4.453125 4.453125,4.453125l53.4375,0l53.4375,0c2.461391,0 4.453125,-1.991734 4.453125,-4.453125l0,-80.75c0,-2.461391 -1.991734,-4.453125 -4.453125,-4.453125z"/>
   <path stroke="null" id="svg_14" fill="#d5e8fe" d="m139,108.125l0,-80.75c0,-2.461391 -1.991734,-4.453125 -4.453125,-4.453125l-53.4375,0l0,89.65625l53.4375,0c2.461391,0 4.453125,-1.991734 4.453125,-4.453125z"/>
   <path stroke="null" id="svg_15" fill="#6aa9ff" d="m81.109375,31.828125l-48.984375,0l0,65.249859l48.984375,-0.728531l38.773359,-0.575938l10.211016,-16.508031l0,-47.437359l-48.984375,0z"/>
   <path stroke="null" id="svg_16" fill="#4895ff" d="m130.09375,79.265484l0,-47.437359l-48.984375,0l0,64.521328l38.773359,-0.575938l10.211016,-16.508031z"/>
   <path stroke="null" id="svg_17" fill="#97de3d" d="m110.976484,60.148516c-1.739391,-1.739391 -4.557625,-1.739391 -6.297016,0l-23.570094,23.570094l-8.90625,8.90625l-14.664141,-14.664141c-1.739391,-1.739391 -4.557625,-1.739391 -6.297016,0l-19.116969,19.117266l0,6.593891l48.984375,0l48.984375,0l0,-24.406391l-19.117266,-19.116969z"/>
   <path stroke="null" id="svg_18" fill="#59c36a" d="m130.09375,79.265484l-19.117266,-19.117266c-1.739391,-1.739391 -4.557625,-1.739391 -6.297016,0l-23.570094,23.570391l0,19.953266l48.984375,0l0,-24.406391z"/>
   <path stroke="null" id="svg_19" fill="#fed843" d="m63.296875,67.75c-7.366656,0 -13.359375,-5.992719 -13.359375,-13.359375s5.992719,-13.359375 13.359375,-13.359375s13.359375,5.992719 13.359375,13.359375s-5.992719,13.359375 -13.359375,13.359375z"/>
  </g>
  <text font-weight="bold" stroke="null" transform="matrix(1.0602276910047623,0,0,1.0971607727160921,-8.364240277453703,15.11705375614779) " opacity="0.9" xml:space="preserve" text-anchor="start" font-family="Helvetica, Arial, sans-serif" font-size="84" id="svg_22" y="64.435369" x="158.742171" stroke-width="0" fill="#453d83">AIPIX</text>
 </g>
</svg>